<svg preserveAspectRatio="none" width="100%" height="100%" overflow="visible" style="display: block;" viewBox="0 0 20 20" fill="none" xmlns="http://www.w3.org/2000/svg">
<g id="calendar.9 1">
<path id="Vector" d="M6.66667 1.66667V4.16667V1.66667ZM13.3333 1.66667V4.16667V1.66667ZM2.91667 7.57498H17.0833H2.91667ZM17.5 7.08333V14.1667C17.5 16.6667 16.25 18.3333 13.3333 18.3333H6.66667C3.75 18.3333 2.5 16.6667 2.5 14.1667V7.08333C2.5 4.58333 3.75 2.91667 6.66667 2.91667H13.3333C16.25 2.91667 17.5 4.58333 17.5 7.08333Z" stroke="var(--stroke-0, #A2A2A8)" stroke-width="1.5" stroke-miterlimit="10" stroke-linecap="round" stroke-linejoin="round"/>
<path id="Vector_2" d="M6.91192 13.9167H6.91941M13.0789 11.4167H13.0864H13.0789ZM13.0789 13.9167H13.0864H13.0789ZM9.99625 11.4167H10.0037H9.99625ZM9.99625 13.9167H10.0037H9.99625ZM6.91192 11.4167H6.91941H6.91192Z" stroke="var(--stroke-0, #A2A2A8)" stroke-width="1.5" stroke-linecap="round" stroke-linejoin="round"/>
</g>
</svg>
