<svg width="20" height="20" viewBox="0 0 20 20" fill="none" xmlns="http://www.w3.org/2000/svg">
<path d="M14.1665 2.02466H5.83317C3.33317 2.02466 1.6665 3.69132 1.6665 6.19133V11.1913C1.6665 13.6913 3.33317 15.358 5.83317 15.358V17.133C5.83317 17.7997 6.57484 18.1997 7.12484 17.8247L10.8332 15.358H14.1665C16.6665 15.358 18.3332 13.6913 18.3332 11.1913V6.19133C18.3332 3.69132 16.6665 2.02466 14.1665 2.02466ZM9.99984 12.1663C9.64984 12.1663 9.37484 11.883 9.37484 11.5413C9.37484 11.1997 9.64984 10.9163 9.99984 10.9163C10.3498 10.9163 10.6248 11.1997 10.6248 11.5413C10.6248 11.883 10.3498 12.1663 9.99984 12.1663ZM11.0498 8.708C10.7248 8.92467 10.6248 9.06633 10.6248 9.29967V9.47467C10.6248 9.81633 10.3415 10.0997 9.99984 10.0997C9.65817 10.0997 9.37484 9.81633 9.37484 9.47467V9.29967C9.37484 8.33299 10.0832 7.85799 10.3498 7.67466C10.6582 7.46633 10.7582 7.32466 10.7582 7.10799C10.7582 6.69133 10.4165 6.34966 9.99984 6.34966C9.58317 6.34966 9.2415 6.69133 9.2415 7.10799C9.2415 7.44966 8.95817 7.73299 8.6165 7.73299C8.27484 7.73299 7.9915 7.44966 7.9915 7.10799C7.9915 5.99966 8.8915 5.09966 9.99984 5.09966C11.1082 5.09966 12.0082 5.99966 12.0082 7.10799C12.0082 8.05799 11.3082 8.533 11.0498 8.708Z" fill="#929EAE"/>
</svg>
