<svg width="20" height="20" viewBox="0 0 20 20" fill="none" xmlns="http://www.w3.org/2000/svg">
<path d="M12.3752 3.29232V6.45898H11.1252V3.29232C11.1252 3.06732 10.9252 2.95898 10.7918 2.95898C10.7502 2.95898 10.7085 2.96732 10.6668 2.98398L4.0585 5.47565C3.61683 5.64232 3.3335 6.05898 3.3335 6.53398V7.09232C2.57516 7.65898 2.0835 8.56733 2.0835 9.59233V6.53398C2.0835 5.54232 2.69183 4.65898 3.61683 4.30898L10.2335 1.80898C10.4168 1.74232 10.6085 1.70898 10.7918 1.70898C11.6252 1.70898 12.3752 2.38398 12.3752 3.29232ZM17.9174 12.0833V12.9167C17.9174 13.1417 17.7424 13.325 17.5091 13.3333H16.2924C15.8507 13.3333 15.4507 13.0083 15.4174 12.575C15.3924 12.3167 15.4924 12.075 15.6591 11.9083C15.8091 11.75 16.0174 11.6667 16.2424 11.6667H17.5007C17.7424 11.675 17.9174 11.8583 17.9174 12.0833Z" fill="#1B212D"/>
<path d="M16.2335 10.7916H17.0835C17.5418 10.7916 17.9168 10.4166 17.9168 9.95825V9.59159C17.9168 7.86659 16.5085 6.45825 14.7835 6.45825H5.21683C4.5085 6.45825 3.8585 6.69159 3.3335 7.09159C2.57516 7.65825 2.0835 8.56659 2.0835 9.59159V15.1999C2.0835 16.9249 3.49183 18.3333 5.21683 18.3333H14.7835C16.5085 18.3333 17.9168 16.9249 17.9168 15.1999V15.0416C17.9168 14.5833 17.5418 14.2083 17.0835 14.2083H16.3585C15.5585 14.2083 14.7918 13.7166 14.5835 12.9416C14.4085 12.3083 14.6168 11.6999 15.0335 11.2916C15.3418 10.9749 15.7668 10.7916 16.2335 10.7916ZM11.6668 10.6249H5.8335C5.49183 10.6249 5.2085 10.3416 5.2085 9.99992C5.2085 9.65825 5.49183 9.37492 5.8335 9.37492H11.6668C12.0085 9.37492 12.2918 9.65825 12.2918 9.99992C12.2918 10.3416 12.0085 10.6249 11.6668 10.6249Z" fill="#292D32"/>
</svg>
