<svg width="96" height="11" viewBox="0 0 96 11" fill="none" xmlns="http://www.w3.org/2000/svg">
<path d="M1 10C1.56195 8.27434 3.6959 4.57929 6.72926 3.27147C9.76287 1.96364 13.0883 2.78611 15.7237 4.17717C18.359 5.56823 20.3599 7.52734 23.3981 9.23952C26.4363 10.9517 30.788 11.7824 34.8039 11.7824C38.8198 11.7824 42.1952 11.3148 45.4117 10.6817C48.6283 10.0486 51.5999 9.25408 54.8419 8.71668C58.0838 8.17929 61.5443 7.90911 65.0425 7.94401C68.5407 7.97891 72.1993 8.31987 74.9822 7.6608C77.765 7.00174 79.3354 5.43057 81.4131 4.09182C83.4908 2.75306 86.0376 1.65623 88.8766 0.969562C91.7157 0.282889 94.9184 0 94.9184 0" stroke="#C3C3C3" stroke-width="2"/>
</svg>
