<svg width="17" height="4" viewBox="0 0 17 4" fill="none" xmlns="http://www.w3.org/2000/svg">
<path d="M1.96154 0C0.876154 0 0 0.893333 0 2C0 3.10667 0.876154 4 1.96154 4C3.04692 4 3.92308 3.10667 3.92308 2C3.92308 0.893333 3.04692 0 1.96154 0ZM15.0385 0C13.9531 0 13.0769 0.893333 13.0769 2C13.0769 3.10667 13.9531 4 15.0385 4C16.1238 4 17 3.10667 17 2C17 0.893333 16.1238 0 15.0385 0ZM8.5 0C7.41462 0 6.53846 0.893333 6.53846 2C6.53846 3.10667 7.41462 4 8.5 4C9.58538 4 10.4615 3.10667 10.4615 2C10.4615 0.893333 9.58538 0 8.5 0Z" fill="#929EAE"/>
</svg>
