<svg width="16" height="16" viewBox="0 0 16 16" fill="none" xmlns="http://www.w3.org/2000/svg">
<path d="M14.3741 7.15915L13.4674 6.10581C13.2941 5.90581 13.1541 5.53248 13.1541 5.26581V4.13248C13.1541 3.42581 12.5741 2.84581 11.8674 2.84581H10.7341C10.4741 2.84581 10.0941 2.70581 9.8941 2.53248L8.84076 1.62581C8.38076 1.23248 7.62743 1.23248 7.16076 1.62581L6.11407 2.53914C5.91407 2.70581 5.53407 2.84581 5.27407 2.84581H4.12074C3.41407 2.84581 2.83407 3.42581 2.83407 4.13248V5.27248C2.83407 5.53248 2.69407 5.90581 2.5274 6.10581L1.6274 7.16582C1.24074 7.62582 1.24074 8.37248 1.6274 8.83248L2.5274 9.89248C2.69407 10.0925 2.83407 10.4658 2.83407 10.7258V11.8658C2.83407 12.5725 3.41407 13.1525 4.12074 13.1525H5.27407C5.53407 13.1525 5.91407 13.2925 6.11407 13.4658L7.16743 14.3725C7.62743 14.7658 8.38076 14.7658 8.84743 14.3725L9.90076 13.4658C10.1008 13.2925 10.4741 13.1525 10.7408 13.1525H11.8741C12.5808 13.1525 13.1608 12.5725 13.1608 11.8658V10.7325C13.1608 10.4725 13.3008 10.0925 13.4741 9.89248L14.3808 8.83915C14.7674 8.37915 14.7674 7.61915 14.3741 7.15915ZM10.7741 6.73915L7.5541 9.95915C7.46076 10.0525 7.3341 10.1058 7.20076 10.1058C7.06743 10.1058 6.94076 10.0525 6.84743 9.95915L5.23407 8.34582C5.04074 8.15248 5.04074 7.83248 5.23407 7.63915C5.4274 7.44582 5.7474 7.44582 5.94074 7.63915L7.20076 8.89915L10.0674 6.03248C10.2608 5.83914 10.5808 5.83914 10.7741 6.03248C10.9674 6.22581 10.9674 6.54581 10.7741 6.73915Z" fill="#2F80ED"/>
</svg>
