<svg preserveAspectRatio="none" width="100%" height="100%" overflow="visible" style="display: block;" viewBox="0 0 16 12" fill="none" xmlns="http://www.w3.org/2000/svg">
<path id="Vector" d="M10.2917 1.58333V4.75H9.04167V1.58333C9.04167 1.35833 8.84167 1.25 8.70833 1.25C8.66667 1.25 8.625 1.25833 8.58333 1.275L1.975 3.76667C1.53333 3.93333 1.25 4.35 1.25 4.825V5.38333C0.491667 5.95 0 6.85835 0 7.88335V4.825C0 3.83333 0.608333 2.95 1.53333 2.6L8.15 0.0999999C8.33333 0.0333332 8.525 0 8.70833 0C9.54167 0 10.2917 0.675 10.2917 1.58333ZM15.8339 10.3743V11.2077C15.8339 11.4327 15.6589 11.616 15.4256 11.6243H14.2089C13.7672 11.6243 13.3672 11.2993 13.3339 10.866C13.3089 10.6077 13.4089 10.366 13.5756 10.1993C13.7256 10.041 13.9339 9.95768 14.1589 9.95768H15.4172C15.6589 9.96602 15.8339 10.1493 15.8339 10.3743Z" fill="var(--fill-0, #292D32)"/>
</svg>
