<svg preserveAspectRatio="none" width="100%" height="100%" overflow="visible" style="display: block;" viewBox="0 0 5 14" fill="none" xmlns="http://www.w3.org/2000/svg">
<g id="Group">
<path id="Vector" d="M2.48136 13.3028C2.42597 13.3028 2.37058 13.2935 2.32443 13.2655C1.72443 12.9575 0.912132 12.3787 0.432133 11.3612C-0.140173 10.1663 -0.195561 8.47672 0.579821 8.094C0.93982 7.91663 1.28136 8.094 1.58598 8.24336C1.89982 8.40205 2.12136 8.50473 2.35213 8.42071C2.61059 8.32737 2.75827 8.04732 2.85058 7.87929C3.53366 6.60042 3.72751 3.02517 2.99828 1.39157C2.86905 1.11153 2.65674 0.756802 2.35213 0.691458C2.16751 0.644784 2.04751 0.45809 2.09366 0.271393C2.13982 0.0846958 2.32443 -0.0366561 2.50905 0.0100181C2.97059 0.122036 3.34905 0.486089 3.62597 1.11152C4.46597 2.98783 4.2352 6.76845 3.45981 8.22468C3.33981 8.44872 3.09059 8.91546 2.5829 9.09282C2.05674 9.27952 1.60444 9.04615 1.28136 8.87813C1.15213 8.81278 0.939824 8.7101 0.89367 8.72877C0.681363 8.83145 0.561359 9.99831 1.06905 11.0625C1.46597 11.9026 2.14905 12.388 2.65674 12.6494C2.82289 12.7334 2.89674 12.9481 2.80443 13.1161C2.73059 13.2282 2.61059 13.3028 2.48136 13.3028Z" fill="var(--fill-0, #3D3D3C)"/>
</g>
</svg>
