<svg preserveAspectRatio="none" width="100%" height="100%" overflow="visible" style="display: block;" viewBox="0 0 42 42" fill="none" xmlns="http://www.w3.org/2000/svg">
<g id="Icon">
<circle id="Ellipse 2" cx="21" cy="21" r="21" fill="var(--fill-0, #292642)"/>
<g id="wallet-add.12 1">
<path id="Vector" d="M15.1667 23.5C13.325 23.5 11.8333 24.9917 11.8333 26.8333C11.8333 27.4583 12.0083 28.05 12.3167 28.55C12.8917 29.5167 13.95 30.1667 15.1667 30.1667C16.3833 30.1667 17.4417 29.5167 18.0167 28.55C18.325 28.05 18.5 27.4583 18.5 26.8333C18.5 24.9917 17.0083 23.5 15.1667 23.5ZM16.4083 27.4417H15.7917V28.0917C15.7917 28.4333 15.5083 28.7167 15.1667 28.7167C14.825 28.7167 14.5417 28.4333 14.5417 28.0917V27.4417H13.925C13.5833 27.4417 13.3 27.1583 13.3 26.8167C13.3 26.475 13.5833 26.1917 13.925 26.1917H14.5417V25.6C14.5417 25.2583 14.825 24.975 15.1667 24.975C15.5083 24.975 15.7917 25.2583 15.7917 25.6V26.1917H16.4083C16.75 26.1917 17.0333 26.475 17.0333 26.8167C17.0333 27.1583 16.7583 27.4417 16.4083 27.4417ZM28.9167 21.4167H26.8333C25.9167 21.4167 25.1667 22.1667 25.1667 23.0833C25.1667 24 25.9167 24.75 26.8333 24.75H28.9167C29.15 24.75 29.3333 24.5667 29.3333 24.3333V21.8333C29.3333 21.6 29.15 21.4167 28.9167 21.4167ZM24.7743 15.5001C25.0243 15.7418 24.816 16.1168 24.466 16.1168L17.566 16.1085C17.166 16.1085 16.966 15.6251 17.2494 15.3418L18.7077 13.8751C19.941 12.6501 21.9327 12.6501 23.166 13.8751L24.741 15.4668C24.7493 15.4751 24.766 15.4918 24.7743 15.5001Z" fill="var(--fill-0, white)"/>
<path id="Vector_2" d="M29.2245 26.55C28.7162 28.2667 27.2495 29.3333 25.2495 29.3333H19.8328C19.5078 29.3333 19.2995 28.975 19.4328 28.675C19.6828 28.0917 19.8412 27.4333 19.8412 26.8333C19.8412 24.3083 17.7828 22.25 15.2578 22.25C14.6245 22.25 14.0078 22.3833 13.4411 22.6333C13.1328 22.7667 12.7578 22.5583 12.7578 22.225V21C12.7578 18.7333 14.1245 17.15 16.2495 16.8833C16.4578 16.85 16.6828 16.8333 16.9161 16.8333H25.2495C25.4662 16.8333 25.6745 16.8417 25.8745 16.875C27.5578 17.0667 28.7745 18.0917 29.2245 19.6167C29.3078 19.8917 29.1078 20.1667 28.8245 20.1667H26.9162C25.1078 20.1667 23.6745 21.8167 24.0662 23.6917C24.3412 25.0583 25.6078 26 26.9995 26H28.8245C29.1162 26 29.3078 26.2833 29.2245 26.55Z" fill="var(--fill-0, white)"/>
</g>
</g>
</svg>
