<svg preserveAspectRatio="none" width="100%" height="100%" overflow="visible" style="display: block;" viewBox="0 0 6 22" fill="none" xmlns="http://www.w3.org/2000/svg">
<g id="Group">
<path id="Vector" d="M2.22409 21.8944C2.06073 21.8944 1.90904 21.8127 1.82736 21.661C1.71068 21.451 1.80402 21.1826 2.01405 21.0659C2.64416 20.7392 3.50764 20.1208 3.99772 19.0706C4.62782 17.7287 4.45279 16.2701 4.18441 16.1535C4.1144 16.1184 3.85769 16.2585 3.69433 16.3401C3.28593 16.5502 2.71417 16.8419 2.04906 16.6202C1.39562 16.3985 1.08057 15.8267 0.928878 15.5467C-0.0746188 13.7381 -0.401339 9.01229 0.637164 6.65524C0.987221 5.87345 1.45397 5.4067 2.0374 5.26668C2.63249 5.12666 3.12257 5.3717 3.5193 5.57007C3.84602 5.73343 4.00938 5.80343 4.10273 5.74509C4.51113 5.50005 4.49946 3.99481 3.91604 2.80461C3.41429 1.75444 2.55081 1.14768 1.90904 0.82096C1.69901 0.715943 1.60565 0.447566 1.72234 0.237532C1.82736 0.0274981 2.09573 -0.0658547 2.30577 0.0508309C3.06423 0.435894 4.09106 1.15935 4.69783 2.43122C5.30459 3.69142 5.59631 5.86177 4.54614 6.50355C4.02105 6.83027 3.50763 6.57356 3.1109 6.36353C2.80752 6.21184 2.51581 6.06014 2.23576 6.13015C1.8507 6.2235 1.58232 6.66691 1.43063 7.01697C0.520478 9.07063 0.800525 13.5397 1.68734 15.1266C1.83903 15.395 2.01406 15.6867 2.32911 15.7917C2.62082 15.8967 2.90086 15.7684 3.29759 15.5584C3.68266 15.36 4.1144 15.1383 4.56947 15.36C5.54963 15.8267 5.49129 17.9387 4.79118 19.444C4.19608 20.7275 3.16925 21.451 2.41079 21.8477C2.36412 21.8827 2.2941 21.8944 2.22409 21.8944Z" fill="var(--fill-0, #3D3D3C)"/>
</g>
</svg>
