<svg preserveAspectRatio="none" width="100%" height="100%" overflow="visible" style="display: block;" viewBox="0 0 22 22" fill="none" xmlns="http://www.w3.org/2000/svg">
<g id="More" clip-path="url(#clip0_6238_3577)">
<g id="Vector">
</g>
<path id="Vector_2" d="M4.5 9.16667C3.48708 9.16667 2.66667 9.98708 2.66667 11C2.66667 12.0129 3.48708 12.8333 4.5 12.8333C5.51292 12.8333 6.33333 12.0129 6.33333 11C6.33333 9.98708 5.51292 9.16667 4.5 9.16667ZM17.5 9.16667C16.4871 9.16667 15.6667 9.98708 15.6667 11C15.6667 12.0129 16.4871 12.8333 17.5 12.8333C18.5129 12.8333 19.3333 12.0129 19.3333 11C19.3333 9.98708 18.5129 9.16667 17.5 9.16667ZM11 9.16667C9.98708 9.16667 9.16667 9.98708 9.16667 11C9.16667 12.0129 9.98708 12.8333 11 12.8333C12.0129 12.8333 12.8333 12.0129 12.8333 11C12.8333 9.98708 12.0129 9.16667 11 9.16667Z" fill="var(--fill-0, #929EAE)"/>
</g>
<defs>
<clipPath id="clip0_6238_3577">
<rect width="22" height="22" fill="white"/>
</clipPath>
</defs>
</svg>
