<svg preserveAspectRatio="none" width="100%" height="100%" overflow="visible" style="display: block;" viewBox="0 0 5 18" fill="none" xmlns="http://www.w3.org/2000/svg">
<g id="Group">
<path id="Vector" d="M1.75943 17.5155C1.6302 17.5155 1.5102 17.4502 1.44559 17.3288C1.35328 17.1608 1.42712 16.9461 1.59327 16.8527C2.09173 16.5914 2.77481 16.0966 3.1625 15.2565C3.66096 14.183 3.5225 13.0161 3.31019 12.9228C3.25481 12.8948 3.05173 13.0068 2.9225 13.0721C2.59943 13.2401 2.14712 13.4735 1.62096 13.2962C1.10404 13.1188 0.854814 12.6614 0.734814 12.4373C-0.0590292 10.9904 -0.31749 7.20983 0.504046 5.32419C0.780968 4.69876 1.1502 4.32536 1.61174 4.21334C2.08251 4.10133 2.47019 4.29736 2.78404 4.45605C3.0425 4.58674 3.17173 4.64274 3.24558 4.59607C3.56865 4.40004 3.55942 3.19585 3.09789 2.24369C2.70097 1.40355 2.01789 0.918144 1.5102 0.656768C1.34405 0.572755 1.2702 0.358053 1.3625 0.190026C1.44558 0.0219985 1.65789 -0.0526838 1.82404 0.0406648C2.42404 0.348715 3.23635 0.927477 3.71635 1.94498C4.19634 2.95314 4.42711 4.68942 3.59635 5.20284C3.18097 5.46421 2.77481 5.25885 2.46096 5.09082C2.22097 4.96947 1.9902 4.84811 1.76866 4.90412C1.46405 4.9788 1.25174 5.33353 1.13174 5.61357C0.411739 7.25651 0.633278 10.8318 1.33481 12.1013C1.45481 12.316 1.59328 12.5494 1.84251 12.6334C2.07328 12.7174 2.29481 12.6147 2.60865 12.4467C2.91327 12.288 3.25481 12.1106 3.61481 12.288C4.39019 12.6614 4.34404 14.351 3.79019 15.5552C3.31943 16.582 2.50712 17.1608 1.90712 17.4782C1.8702 17.5062 1.81481 17.5155 1.75943 17.5155Z" fill="var(--fill-0, #3D3D3C)"/>
</g>
</svg>
