<svg preserveAspectRatio="none" width="100%" height="100%" overflow="visible" style="display: block;" viewBox="0 0 6 17" fill="none" xmlns="http://www.w3.org/2000/svg">
<g id="Group">
<path id="Vector" d="M3.13668 16.6286C3.06667 16.6286 2.99665 16.6169 2.93831 16.5819C2.17985 16.1968 1.15302 15.4734 0.546259 14.2015C-0.177192 12.7079 -0.247208 10.5959 0.732951 10.1175C1.18803 9.89579 1.61977 10.1175 2.00483 10.3042C2.40156 10.5026 2.68161 10.6309 2.97332 10.5259C3.30004 10.4092 3.48673 10.0591 3.60342 9.84911C4.46689 8.25052 4.71193 3.78146 3.79012 1.73947C3.62676 1.38941 3.35838 0.946003 2.97332 0.864323C2.73995 0.80598 2.58825 0.572612 2.64659 0.339241C2.70494 0.10587 2.93831 -0.0458201 3.17169 0.0125227C3.75511 0.152545 4.23352 0.607611 4.58358 1.3894C5.64542 3.73479 5.35371 8.46056 4.37355 10.2809C4.22185 10.5609 3.90681 11.1443 3.26504 11.366C2.59993 11.5994 2.02816 11.3077 1.61976 11.0977C1.4564 11.016 1.18803 10.8876 1.12969 10.911C0.86131 11.0393 0.709613 12.4979 1.35138 13.8281C1.85313 14.8783 2.71661 15.485 3.35838 15.8118C3.56841 15.9168 3.66176 16.1851 3.54508 16.3952C3.45173 16.5352 3.30004 16.6286 3.13668 16.6286Z" fill="var(--fill-0, #3D3D3C)"/>
</g>
</svg>
