<svg preserveAspectRatio="none" width="100%" height="100%" overflow="visible" style="display: block;" viewBox="0 0 621 127" fill="none" xmlns="http://www.w3.org/2000/svg">
<g id="Chart">
<path id="Vector 1" d="M1 51.0524C17.5926 44.6106 53.94 32.4297 66.5894 35.2407C82.4011 38.7544 106.997 51.6381 110.511 53.3949C114.025 55.1518 141.549 78.5766 155.018 46.9531C168.487 15.3296 197.768 5.3741 214.751 18.8434C231.734 32.3126 241.69 -12.7801 269.799 5.3741C297.909 23.5283 305.522 43.4394 323.676 41.0969C341.831 38.7545 351.786 70.9635 377.553 68.6211C403.321 66.2786 403.321 71.5492 414.447 75.0629C425.574 78.5766 442.557 55.1518 464.811 67.4498C487.064 79.7478 501.119 55.1518 516.931 85.604C532.743 116.056 538.599 114.299 556.167 106.686C573.736 99.0733 582.52 114.885 594.233 100.245C603.603 88.5321 614.144 71.1587 618.243 63.9361" stroke="var(--stroke-0, #C8EE44)" stroke-width="2"/>
<path id="Vector 2" d="M2.17124 69.7923C11.1507 68.4259 31.218 61.4765 39.6509 44.6107C50.192 23.5283 54.2914 11.816 82.4011 18.2578C110.511 24.6996 106.412 3.03165 129.251 33.4839C152.09 63.9361 146.819 46.9531 169.658 50.4668C192.498 53.9806 198.939 67.4498 212.994 50.4668C227.049 33.4839 242.275 61.008 268.043 53.9806C293.81 46.9531 293.224 83.8472 327.19 82.0903C361.156 80.3335 343.002 129.526 384.581 125.426C426.16 121.327 402.149 90.8746 441.972 109.614C481.794 128.354 488.821 48.1244 519.273 60.4224C549.726 72.7204 568.465 103.758 620 80.3335" stroke="var(--stroke-0, #29A073)" stroke-width="2"/>
</g>
</svg>
